<svg xmlns="http://www.w3.org/2000/svg" xmlns:xlink="http://www.w3.org/1999/xlink" width="1080" zoomAndPan="magnify" viewBox="0 0 810 809.999993" height="1080" preserveAspectRatio="xMidYMid meet" version="1.2"><defs><clipPath id="524e04770c"><path d="M 464.589844 455.839844 L 488.726562 455.839844 L 488.726562 484.324219 L 464.589844 484.324219 Z M 464.589844 455.839844 "/></clipPath><clipPath id="88361e28a3"><path d="M 470.222656 483.988281 L 464.785156 483.988281 L 464.785156 456.4375 C 468.554688 454.996094 470.78125 456.4375 472.714844 459.679688 C 475.597656 464.496094 478.875 469.082031 482.804688 475.011719 L 482.804688 456.304688 L 488.539062 456.304688 L 488.539062 483.628906 C 485 485.003906 482.640625 483.988281 480.675781 480.648438 L 470.222656 466.460938 Z M 470.222656 483.988281 "/></clipPath><clipPath id="07971c28bf"><path d="M 0.640625 0.839844 L 24.640625 0.839844 L 24.640625 29.324219 L 0.640625 29.324219 Z M 0.640625 0.839844 "/></clipPath><clipPath id="f82439ceee"><path d="M 6.222656 28.988281 L 0.785156 28.988281 L 0.785156 1.4375 C 4.554688 -0.00390625 6.78125 1.4375 8.714844 4.679688 C 11.597656 9.496094 14.875 14.082031 18.804688 20.011719 L 18.804688 1.304688 L 24.539062 1.304688 L 24.539062 28.628906 C 21 30.003906 18.640625 28.988281 16.675781 25.648438 L 6.222656 11.460938 Z M 6.222656 28.988281 "/></clipPath><clipPath id="01e0d33b59"><rect x="0" width="25" y="0" height="30"/></clipPath><clipPath id="7a737f5dd8"><path d="M 315.414062 455.839844 L 338.34375 455.839844 L 338.34375 484.324219 L 315.414062 484.324219 Z M 315.414062 455.839844 "/></clipPath><clipPath id="81f0697998"><path d="M 315.492188 456.140625 L 320.503906 456.140625 L 320.503906 467.183594 L 332.820312 467.183594 L 332.820312 456.273438 C 334.851562 456.140625 336.394531 456.042969 338.261719 455.914062 L 338.261719 483.859375 L 332.921875 483.859375 L 332.921875 472.164062 L 320.734375 472.164062 L 320.734375 483.890625 C 318.703125 483.988281 317.292969 484.054688 315.492188 484.152344 Z M 315.492188 456.140625 "/></clipPath><clipPath id="387a482011"><path d="M 0.414062 0.839844 L 23.34375 0.839844 L 23.34375 29.320312 L 0.414062 29.320312 Z M 0.414062 0.839844 "/></clipPath><clipPath id="c5df11ccfe"><path d="M 0.492188 1.140625 L 5.503906 1.140625 L 5.503906 12.183594 L 17.820312 12.183594 L 17.820312 1.273438 C 19.851562 1.140625 21.394531 1.042969 23.261719 0.914062 L 23.261719 28.859375 L 17.921875 28.859375 L 17.921875 17.164062 L 5.734375 17.164062 L 5.734375 28.890625 C 3.703125 28.988281 2.292969 29.054688 0.492188 29.152344 Z M 0.492188 1.140625 "/></clipPath><clipPath id="58bc4c9ddf"><rect x="0" width="24" y="0" height="30"/></clipPath><clipPath id="65fa7e33a1"><path d="M 520.109375 455.113281 L 540.867188 455.113281 L 540.867188 484.5625 L 520.109375 484.5625 Z M 520.109375 455.113281 "/></clipPath><clipPath id="9147182562"><path d="M 520.382812 475.308594 L 526.96875 478.027344 C 528.800781 478.648438 530.734375 479.4375 532.601562 479.371094 L 535.027344 476.878906 C 533.945312 474.785156 532.503906 473.34375 530.996094 472.488281 L 524.640625 470.164062 C 519.726562 467.738281 518.875 461.777344 522.742188 458.007812 C 528.050781 452.898438 537.617188 455.226562 540.761719 463.808594 L 533.488281 461.316406 C 531.75 460.828125 529.882812 460.269531 528.148438 460.433594 L 526.050781 462.761719 C 527.097656 464.726562 528.441406 466.035156 529.851562 466.824219 L 536.632812 469.476562 C 540.824219 471.605469 542.105469 476.289062 539.546875 480.15625 C 536.699219 484.480469 532.308594 484.808594 527.820312 484.023438 C 523.886719 483.335938 520.941406 481.269531 520.351562 475.308594 "/></clipPath><clipPath id="4e64f61539"><path d="M 0.109375 0.113281 L 20.867188 0.113281 L 20.867188 29.5625 L 0.109375 29.5625 Z M 0.109375 0.113281 "/></clipPath><clipPath id="b32f94c749"><path d="M 0.382812 20.308594 L 6.96875 23.027344 C 8.800781 23.648438 10.734375 24.4375 12.601562 24.371094 L 15.027344 21.878906 C 13.945312 19.785156 12.503906 18.34375 10.996094 17.488281 L 4.640625 15.164062 C -0.273438 12.738281 -1.125 6.777344 2.742188 3.007812 C 8.050781 -2.101562 17.617188 0.226562 20.761719 8.808594 L 13.488281 6.316406 C 11.75 5.828125 9.882812 5.269531 8.148438 5.433594 L 6.050781 7.761719 C 7.097656 9.726562 8.441406 11.035156 9.851562 11.824219 L 16.632812 14.476562 C 20.824219 16.605469 22.105469 21.289062 19.546875 25.15625 C 16.699219 29.480469 12.308594 29.808594 7.820312 29.023438 C 3.886719 28.335938 0.941406 26.269531 0.351562 20.308594 "/></clipPath><clipPath id="ddd7b59e0b"><rect x="0" width="21" y="0" height="30"/></clipPath><clipPath id="519a7655f5"><path d="M 288 455.839844 L 308.414062 455.839844 L 308.414062 484.324219 L 288 484.324219 Z M 288 455.839844 "/></clipPath><clipPath id="8978f031bd"><path d="M 293.640625 469.507812 L 301.828125 466.789062 C 302.582031 466.363281 302.582031 462.597656 301.828125 462.136719 L 293.640625 459.253906 Z M 288.101562 455.945312 L 299.601562 455.976562 C 304.84375 456.207031 308.019531 459.253906 308.285156 463.90625 C 308.546875 468.753906 305.988281 471.898438 300.714844 472.851562 L 293.476562 473.503906 L 293.476562 483.761719 C 291.445312 483.925781 289.902344 484.023438 288.070312 484.152344 Z M 288.101562 455.945312 "/></clipPath><clipPath id="f35fc3d561"><path d="M 0 0.839844 L 20.414062 0.839844 L 20.414062 29.320312 L 0 29.320312 Z M 0 0.839844 "/></clipPath><clipPath id="215f6cd59e"><path d="M 5.640625 14.507812 L 13.828125 11.789062 C 14.582031 11.363281 14.582031 7.597656 13.828125 7.136719 L 5.640625 4.253906 Z M 0.101562 0.945312 L 11.601562 0.976562 C 16.84375 1.207031 20.019531 4.253906 20.285156 8.90625 C 20.546875 13.753906 17.988281 16.898438 12.714844 17.851562 L 5.476562 18.503906 L 5.476562 28.761719 C 3.445312 28.925781 1.902344 29.023438 0.0703125 29.152344 Z M 0.101562 0.945312 "/></clipPath><clipPath id="1a97cced69"><rect x="0" width="21" y="0" height="30"/></clipPath><clipPath id="ee23767386"><path d="M 395.3125 455.839844 L 415.828125 455.839844 L 415.828125 484 L 395.3125 484 Z M 395.3125 455.839844 "/></clipPath><clipPath id="738bf8594b"><path d="M 401.164062 460.238281 L 401.164062 468.65625 C 404.765625 468.328125 409.289062 470.425781 409.910156 464.59375 C 410.304688 461.023438 407.847656 459.84375 401.164062 460.238281 M 400.835938 483.925781 L 395.527344 483.925781 L 395.527344 456.140625 C 399.886719 456.140625 404.40625 455.714844 408.761719 456.273438 C 413.054688 456.796875 415.578125 459.746094 415.675781 464.265625 C 415.773438 468.753906 413.546875 471.636719 409.191406 472.621094 L 400.835938 473.605469 Z M 400.835938 483.925781 "/></clipPath><clipPath id="0d37e62c1c"><path d="M 0.519531 0.839844 L 20.828125 0.839844 L 20.828125 29 L 0.519531 29 Z M 0.519531 0.839844 "/></clipPath><clipPath id="97e3d29049"><path d="M 6.164062 5.238281 L 6.164062 13.65625 C 9.765625 13.328125 14.289062 15.425781 14.910156 9.59375 C 15.304688 6.023438 12.847656 4.84375 6.164062 5.238281 M 5.835938 28.925781 L 0.527344 28.925781 L 0.527344 1.140625 C 4.886719 1.140625 9.40625 0.714844 13.761719 1.273438 C 18.054688 1.796875 20.578125 4.746094 20.675781 9.265625 C 20.773438 13.753906 18.546875 16.636719 14.191406 17.621094 L 5.835938 18.605469 Z M 5.835938 28.925781 "/></clipPath><clipPath id="a9a399b11f"><rect x="0" width="21" y="0" height="29"/></clipPath><clipPath id="f8d729b037"><path d="M 422.828125 455.839844 L 443 455.839844 L 443 484.324219 L 422.828125 484.324219 Z M 422.828125 455.839844 "/></clipPath><clipPath id="efdd5fe7f4"><path d="M 428.453125 460.367188 L 428.453125 468.691406 C 432.253906 468.363281 436.839844 470.359375 437.265625 464.464844 C 437.527344 460.925781 434.941406 459.746094 428.453125 460.367188 M 428.125 473.605469 L 428.125 483.761719 C 426.257812 483.925781 424.75 484.054688 422.851562 484.21875 L 422.851562 456.140625 C 427.273438 456.140625 431.761719 455.714844 436.121094 456.273438 C 440.410156 456.828125 442.933594 459.777344 443 464.300781 C 443.066406 468.789062 440.835938 471.671875 436.480469 472.621094 L 428.09375 473.605469 "/></clipPath><clipPath id="08f6246b02"><path d="M 0.828125 0.839844 L 21 0.839844 L 21 29.320312 L 0.828125 29.320312 Z M 0.828125 0.839844 "/></clipPath><clipPath id="1ca2d1fbd9"><path d="M 6.453125 5.367188 L 6.453125 13.691406 C 10.253906 13.363281 14.839844 15.359375 15.265625 9.464844 C 15.527344 5.925781 12.941406 4.746094 6.453125 5.367188 M 6.125 18.605469 L 6.125 28.761719 C 4.257812 28.925781 2.75 29.054688 0.851562 29.21875 L 0.851562 1.140625 C 5.273438 1.140625 9.761719 0.714844 14.121094 1.273438 C 18.410156 1.828125 20.933594 4.777344 21 9.300781 C 21.066406 13.789062 18.835938 16.671875 14.480469 17.621094 L 6.09375 18.605469 "/></clipPath><clipPath id="bbab6e4b03"><rect x="0" width="21" y="0" height="30"/></clipPath><clipPath id="390aaf2b9d"><path d="M 497 456.082031 L 513.351562 456.082031 L 513.351562 484 L 497 484 Z M 497 456.082031 "/></clipPath><clipPath id="a5ebe120ed"><path d="M 497.089844 456.109375 L 512.519531 456.109375 C 513.996094 459.058594 512.945312 460.140625 509.800781 460.007812 L 502.625 459.976562 L 502.625 467.609375 C 504.917969 467.609375 507.277344 467.445312 509.605469 467.707031 L 511.144531 468.855469 L 510.488281 471.605469 C 507.441406 472.0625 505.179688 471.835938 502.558594 471.835938 L 502.558594 478.746094 C 505.214844 482.121094 512.355469 475.667969 513.339844 483.859375 L 497.089844 483.859375 Z M 497.089844 456.109375 "/></clipPath><clipPath id="8b75851eae"><path d="M 0.0390625 0.0820312 L 16.351562 0.0820312 L 16.351562 28 L 0.0390625 28 Z M 0.0390625 0.0820312 "/></clipPath><clipPath id="adbb8f548d"><path d="M 0.0898438 0.109375 L 15.519531 0.109375 C 16.996094 3.058594 15.945312 4.140625 12.800781 4.007812 L 5.625 3.976562 L 5.625 11.609375 C 7.917969 11.609375 10.277344 11.445312 12.605469 11.707031 L 14.144531 12.855469 L 13.488281 15.605469 C 10.441406 16.0625 8.179688 15.835938 5.558594 15.835938 L 5.558594 22.746094 C 8.214844 26.121094 15.355469 19.667969 16.339844 27.859375 L 0.0898438 27.859375 Z M 0.0898438 0.109375 "/></clipPath><clipPath id="52d9e49bab"><rect x="0" width="17" y="0" height="28"/></clipPath><clipPath id="1166c1f495"><path d="M 360.070312 456.082031 L 375.277344 456.082031 L 375.277344 484 L 360.070312 484 Z M 360.070312 456.082031 "/></clipPath><clipPath id="121ef47cf9"><path d="M 375.050781 483.925781 L 360.308594 483.925781 L 360.308594 456.242188 L 365.582031 456.242188 L 365.582031 478.714844 C 368.464844 481.730469 374.132812 477.40625 375.019531 483.957031 "/></clipPath><clipPath id="920bc8a1f7"><path d="M 0.238281 0.238281 L 15.121094 0.238281 L 15.121094 28 L 0.238281 28 Z M 0.238281 0.238281 "/></clipPath><clipPath id="8828a5b03f"><path d="M 15.050781 27.925781 L 0.308594 27.925781 L 0.308594 0.242188 L 5.582031 0.242188 L 5.582031 22.714844 C 8.464844 25.730469 14.132812 21.40625 15.019531 27.957031 "/></clipPath><clipPath id="c9ee217ab9"><rect x="0" width="16" y="0" height="28"/></clipPath><clipPath id="db752463a2"><path d="M 346.550781 455.839844 L 351.863281 455.839844 L 351.863281 484 L 346.550781 484 Z M 346.550781 455.839844 "/></clipPath><clipPath id="54c6fcce9e"><path d="M 351.660156 455.945312 L 351.660156 483.890625 L 346.613281 483.890625 L 346.613281 456.242188 C 348.15625 456.140625 349.660156 456.042969 351.660156 455.914062 "/></clipPath><clipPath id="a00ec20638"><path d="M 0.558594 0.839844 L 5.839844 0.839844 L 5.839844 29 L 0.558594 29 Z M 0.558594 0.839844 "/></clipPath><clipPath id="00449e449c"><path d="M 5.660156 0.945312 L 5.660156 28.890625 L 0.613281 28.890625 L 0.613281 1.242188 C 2.15625 1.140625 3.660156 1.042969 5.660156 0.914062 "/></clipPath><clipPath id="b55b53ef25"><rect x="0" width="6" y="0" height="29"/></clipPath><clipPath id="d6383045e9"><path d="M 381.792969 456.082031 L 386.863281 456.082031 L 386.863281 484.324219 L 381.792969 484.324219 Z M 381.792969 456.082031 "/></clipPath><clipPath id="b1f02248d5"><path d="M 381.898438 456.140625 L 386.714844 456.140625 L 386.714844 483.925781 C 385.109375 484.023438 383.699219 484.085938 381.898438 484.1875 Z M 381.898438 456.140625 "/></clipPath><clipPath id="43291abb43"><path d="M 0.839844 0.0820312 L 5.863281 0.0820312 L 5.863281 28.320312 L 0.839844 28.320312 Z M 0.839844 0.0820312 "/></clipPath><clipPath id="3ff4050409"><path d="M 0.898438 0.140625 L 5.714844 0.140625 L 5.714844 27.925781 C 4.109375 28.023438 2.699219 28.085938 0.898438 28.1875 Z M 0.898438 0.140625 "/></clipPath><clipPath id="00994f8c13"><rect x="0" width="6" y="0" height="29"/></clipPath><clipPath id="faa0075743"><path d="M 451.089844 456.242188 L 456.105469 456.242188 L 456.105469 483.988281 L 451.089844 483.988281 Z M 451.089844 456.242188 "/></clipPath><clipPath id="37af4596ed"><path d="M 0.0898438 0.242188 L 5.105469 0.242188 L 5.105469 27.988281 L 0.0898438 27.988281 Z M 0.0898438 0.242188 "/></clipPath><clipPath id="48becadfec"><rect x="0" width="6" y="0" height="28"/></clipPath><clipPath id="29718c95a8"><path d="M 64 327.691406 L 121.5625 327.691406 L 121.5625 397 L 64 397 Z M 64 327.691406 "/></clipPath><clipPath id="e3a4bb98b3"><path d="M 64.222656 339.796875 L 94.394531 339.796875 L 94.394531 345.53125 C 94.394531 361.058594 94.59375 376.621094 94.296875 392.148438 C 94.199219 396.898438 96.625 396.898438 100 396.800781 C 103.339844 396.703125 106.320312 397.292969 106.222656 392.050781 L 106.15625 344.941406 C 106.15625 343.238281 106.320312 341.53125 106.386719 339.566406 L 118.117188 339.535156 C 119.195312 339.5 121.164062 339.175781 121.195312 338.847656 L 121.457031 329.347656 C 121.390625 328.691406 118.507812 328.003906 116.9375 328.003906 L 64.320312 327.902344 Z M 64.222656 339.796875 "/></clipPath><clipPath id="d11131e05e"><path d="M 0.078125 0.839844 L 57.5625 0.839844 L 57.5625 70 L 0.078125 70 Z M 0.078125 0.839844 "/></clipPath><clipPath id="64fc333ddc"><path d="M 0.222656 12.796875 L 30.394531 12.796875 L 30.394531 18.53125 C 30.394531 34.058594 30.59375 49.621094 30.296875 65.148438 C 30.199219 69.898438 32.625 69.898438 36 69.800781 C 39.339844 69.703125 42.320312 70.292969 42.222656 65.050781 L 42.15625 17.941406 C 42.15625 16.238281 42.320312 14.53125 42.386719 12.566406 L 54.117188 12.535156 C 55.195312 12.5 57.164062 12.175781 57.195312 11.847656 L 57.457031 2.347656 C 57.390625 1.691406 54.507812 1.003906 52.9375 1.003906 L 0.320312 0.902344 Z M 0.222656 12.796875 "/></clipPath><clipPath id="f32261ccb6"><rect x="0" width="58" y="0" height="70"/></clipPath><clipPath id="4a6449445a"><path d="M 420 341.515625 L 502 341.515625 L 502 397 L 420 397 Z M 420 341.515625 "/></clipPath><clipPath id="d510488450"><path d="M 460.539062 382.945312 C 457.886719 383.042969 454.710938 383.796875 454.875 379.242188 L 454.875 365.152344 C 454.742188 358.667969 450.285156 353.882812 444.191406 353.492188 C 437.902344 353.066406 432.429688 357.421875 432.039062 364.105469 L 431.710938 391.757812 C 431.839844 396.507812 429.710938 396.867188 425.847656 396.898438 C 421.980469 396.933594 419.917969 396.472656 420.015625 391.757812 L 420.179688 347.59375 C 420.179688 345.628906 420.832031 342.089844 421.457031 342.023438 L 431.25 342.582031 C 432.265625 342.679688 433.445312 343.761719 434.199219 343.464844 C 444.257812 339.730469 453.003906 342.023438 460.933594 349.199219 C 476.234375 334.816406 496.773438 343.074219 500.804688 358.40625 C 501.917969 362.695312 501.722656 367.382812 501.820312 371.871094 L 501.917969 392.738281 C 502.117188 398.015625 498.480469 396.636719 495.628906 396.769531 C 492.613281 396.933594 489.796875 397.261719 489.929688 392.574219 L 489.992188 366.367188 C 489.929688 358.632812 485.308594 353.492188 478.496094 353.492188 C 471.582031 353.492188 466.929688 358.472656 466.699219 366.203125 L 466.667969 379.308594 C 466.796875 384.320312 463.097656 382.84375 460.476562 382.945312 "/></clipPath><clipPath id="1958999abd"><path d="M 0 0.515625 L 82 0.515625 L 82 56 L 0 56 Z M 0 0.515625 "/></clipPath><clipPath id="de38d34161"><path d="M 40.539062 41.945312 C 37.886719 42.042969 34.710938 42.796875 34.875 38.242188 L 34.875 24.152344 C 34.742188 17.667969 30.285156 12.882812 24.191406 12.492188 C 17.902344 12.066406 12.429688 16.421875 12.039062 23.105469 L 11.710938 50.757812 C 11.839844 55.507812 9.710938 55.867188 5.847656 55.898438 C 1.980469 55.933594 -0.0820312 55.472656 0.015625 50.757812 L 0.179688 6.59375 C 0.179688 4.628906 0.832031 1.089844 1.457031 1.023438 L 11.25 1.582031 C 12.265625 1.679688 13.445312 2.761719 14.199219 2.464844 C 24.257812 -1.269531 33.003906 1.023438 40.933594 8.199219 C 56.234375 -6.183594 76.773438 2.074219 80.804688 17.40625 C 81.917969 21.695312 81.722656 26.382812 81.820312 30.871094 L 81.917969 51.738281 C 82.117188 57.015625 78.480469 55.636719 75.628906 55.769531 C 72.613281 55.933594 69.796875 56.261719 69.929688 51.574219 L 69.992188 25.367188 C 69.929688 17.632812 65.308594 12.492188 58.496094 12.492188 C 51.582031 12.492188 46.929688 17.472656 46.699219 25.203125 L 46.667969 38.308594 C 46.796875 43.320312 43.097656 41.84375 40.476562 41.945312 "/></clipPath><clipPath id="ec382238a7"><rect x="0" width="82" y="0" height="56"/></clipPath><clipPath id="26a20a257a"><path d="M 513 341.054688 L 569.425781 341.054688 L 569.425781 410.628906 L 513 410.628906 Z M 513 341.054688 "/></clipPath><clipPath id="001c320707"><path d="M 541.265625 385.367188 C 550.046875 385.335938 557.320312 378.09375 557.382812 369.347656 C 557.449219 360.371094 550.078125 353 541.035156 353.066406 C 532.289062 353.097656 524.949219 360.402344 524.886719 369.085938 C 524.820312 377.996094 532.257812 385.402344 541.265625 385.367188 M 524.886719 392.738281 L 524.949219 406.304688 C 525.082031 409.414062 523.96875 410.5625 520.789062 410.59375 C 513.1875 410.691406 513.1875 410.855469 513.1875 403.058594 L 513.222656 346.742188 C 513.222656 344.578125 512.109375 341.140625 516.203125 341.632812 C 519.445312 342.023438 524.589844 338.878906 525.246094 345.957031 C 533.140625 341.402344 541.625 339.4375 549.949219 342.941406 C 555.089844 345.105469 560.203125 348.773438 563.738281 353.097656 C 571.539062 362.566406 570.847656 377.046875 563.25 386.417969 C 554.207031 397.621094 542.28125 399.71875 524.851562 392.773438 "/></clipPath><clipPath id="c8508bfb4c"><path d="M 0 0.0546875 L 56.425781 0.0546875 L 56.425781 69.628906 L 0 69.628906 Z M 0 0.0546875 "/></clipPath><clipPath id="bd6355cd68"><path d="M 28.265625 44.367188 C 37.046875 44.335938 44.320312 37.09375 44.382812 28.347656 C 44.449219 19.371094 37.078125 12 28.035156 12.066406 C 19.289062 12.097656 11.949219 19.402344 11.886719 28.085938 C 11.820312 36.996094 19.257812 44.402344 28.265625 44.367188 M 11.886719 51.738281 L 11.949219 65.304688 C 12.082031 68.414062 10.96875 69.5625 7.789062 69.59375 C 0.1875 69.691406 0.1875 69.855469 0.1875 62.058594 L 0.222656 5.742188 C 0.222656 3.578125 -0.890625 0.140625 3.203125 0.632812 C 6.445312 1.023438 11.589844 -2.121094 12.246094 4.957031 C 20.140625 0.402344 28.625 -1.5625 36.949219 1.941406 C 42.089844 4.105469 47.203125 7.773438 50.738281 12.097656 C 58.539062 21.566406 57.847656 36.046875 50.25 45.417969 C 41.207031 56.621094 29.28125 58.71875 11.851562 51.773438 "/></clipPath><clipPath id="cb3a98d22b"><rect x="0" width="57" y="0" height="70"/></clipPath><clipPath id="2d0bcb64ea"><path d="M 274.078125 325.390625 L 346.875 325.390625 L 346.875 397 L 274.078125 397 Z M 274.078125 325.390625 "/></clipPath><clipPath id="fcad66f4de"><path d="M 334.605469 357.226562 C 346.988281 355.882812 347.742188 355.75 345.546875 368.070312 C 342.269531 386.480469 326.546875 398.046875 307.445312 396.898438 C 289.753906 395.851562 275.730469 381.566406 274.390625 363.222656 C 273.144531 346.121094 285.296875 329.96875 302.726562 326.496094 C 315.011719 324.039062 326.183594 326.789062 335.488281 335.832031 L 334.308594 337.503906 C 328.511719 343.761719 328.511719 343.761719 321.761719 340.125 C 312.328125 335.011719 300.664062 336.847656 293.0625 344.613281 C 285.625 352.214844 284.019531 363.679688 289.164062 372.851562 C 294.4375 382.289062 305.382812 387.203125 315.667969 384.8125 C 326.382812 382.289062 334.046875 373.148438 334.570312 362.269531 L 334.570312 359.09375 "/></clipPath><clipPath id="197e42a4b5"><path d="M 0.078125 0.390625 L 72.875 0.390625 L 72.875 72 L 0.078125 72 Z M 0.078125 0.390625 "/></clipPath><clipPath id="a6bb6426bc"><path d="M 60.605469 32.226562 C 72.988281 30.882812 73.742188 30.75 71.546875 43.070312 C 68.269531 61.480469 52.546875 73.046875 33.445312 71.898438 C 15.753906 70.851562 1.730469 56.566406 0.390625 38.222656 C -0.855469 21.121094 11.296875 4.96875 28.726562 1.496094 C 41.011719 -0.960938 52.183594 1.789062 61.488281 10.832031 L 60.308594 12.503906 C 54.511719 18.761719 54.511719 18.761719 47.761719 15.125 C 38.328125 10.011719 26.664062 11.847656 19.0625 19.613281 C 11.625 27.214844 10.019531 38.679688 15.164062 47.851562 C 20.4375 57.289062 31.382812 62.203125 41.667969 59.8125 C 52.382812 57.289062 60.046875 48.148438 60.570312 37.269531 L 60.570312 34.09375 "/></clipPath><clipPath id="f405b156c7"><rect x="0" width="73" y="0" height="72"/></clipPath><clipPath id="d345bf9309"><path d="M 576 341 L 632.550781 341 L 632.550781 397.269531 L 576 397.269531 Z M 576 341 "/></clipPath><clipPath id="5b4129eb8b"><path d="M 603.972656 385.238281 C 612.75 385.335938 620.253906 378.160156 620.515625 369.445312 C 620.746094 360.863281 613.308594 353.195312 604.59375 353.03125 C 595.519531 352.867188 587.917969 360.140625 587.851562 369.054688 C 587.789062 377.765625 595.160156 385.140625 603.972656 385.238281 M 620.089844 392.574219 C 604.136719 399.683594 591.128906 397.554688 582.445312 386.84375 C 574.257812 376.75 573.863281 363.121094 581.464844 352.703125 C 589.980469 341.042969 602.003906 338.75 619.796875 345.398438 C 621.171875 341.925781 628.574219 339.664062 631.292969 342.023438 L 632.210938 344.023438 C 632.277344 361.058594 632.179688 377.046875 632.308594 393.066406 L 630.933594 397.128906 C 625.070312 396.34375 620.582031 398.734375 620.125 392.574219 "/></clipPath><clipPath id="2d443917da"><path d="M 0 0 L 56.398438 0 L 56.398438 56.269531 L 0 56.269531 Z M 0 0 "/></clipPath><clipPath id="e4c3747657"><path d="M 27.972656 44.238281 C 36.75 44.335938 44.253906 37.160156 44.515625 28.445312 C 44.746094 19.863281 37.308594 12.195312 28.59375 12.03125 C 19.519531 11.867188 11.917969 19.140625 11.851562 28.054688 C 11.789062 36.765625 19.160156 44.140625 27.972656 44.238281 M 44.089844 51.574219 C 28.136719 58.683594 15.128906 56.554688 6.445312 45.84375 C -1.742188 35.75 -2.136719 22.121094 5.464844 11.703125 C 13.980469 0.0429688 26.003906 -2.25 43.796875 4.398438 C 45.171875 0.925781 52.574219 -1.335938 55.292969 1.023438 L 56.210938 3.023438 C 56.277344 20.058594 56.179688 36.046875 56.308594 52.066406 L 54.933594 56.128906 C 49.070312 55.34375 44.582031 57.734375 44.125 51.574219 "/></clipPath><clipPath id="df4c4d1478"><rect x="0" width="57" y="0" height="57"/></clipPath><clipPath id="0757c1f353"><path d="M 190 341.054688 L 245.507812 341.054688 L 245.507812 397.269531 L 190 397.269531 Z M 190 341.054688 "/></clipPath><clipPath id="8a9e4e34a2"><path d="M 202.835938 374.164062 L 223.148438 353.917969 C 217.351562 351.722656 211.550781 353.097656 206.800781 357.78125 C 202.050781 362.46875 200.640625 368.199219 202.835938 374.164062 M 211.78125 383.699219 C 220.824219 387.136719 229.503906 383.597656 232.976562 375.800781 L 234.15625 370.460938 C 238.417969 368.921875 241.824219 369.414062 244.839844 369.25 C 247.523438 377.667969 239.988281 391.394531 227.539062 395.621094 C 213.78125 400.273438 198.808594 394.015625 192.8125 380.945312 C 186.652344 367.511719 191.664062 352.050781 204.476562 344.90625 C 217.253906 337.765625 232.847656 341.46875 241.824219 354.179688 L 211.8125 383.761719 "/></clipPath><clipPath id="07bf739ab0"><path d="M 0 0.0546875 L 55.507812 0.0546875 L 55.507812 56.269531 L 0 56.269531 Z M 0 0.0546875 "/></clipPath><clipPath id="765dbc8a4c"><path d="M 12.835938 33.164062 L 33.148438 12.917969 C 27.351562 10.722656 21.550781 12.097656 16.800781 16.78125 C 12.050781 21.46875 10.640625 27.199219 12.835938 33.164062 M 21.78125 42.699219 C 30.824219 46.136719 39.503906 42.597656 42.976562 34.800781 L 44.15625 29.460938 C 48.417969 27.921875 51.824219 28.414062 54.839844 28.25 C 57.523438 36.667969 49.988281 50.394531 37.539062 54.621094 C 23.78125 59.273438 8.808594 53.015625 2.8125 39.945312 C -3.347656 26.511719 1.664062 11.050781 14.476562 3.90625 C 27.253906 -3.234375 42.847656 0.46875 51.824219 13.179688 L 21.8125 42.761719 "/></clipPath><clipPath id="eb8aed7fd4"><rect x="0" width="56" y="0" height="57"/></clipPath><clipPath id="6a8ab65f80"><path d="M 132.160156 327.691406 L 179.621094 327.691406 L 179.621094 410.628906 L 132.160156 410.628906 Z M 132.160156 327.691406 "/></clipPath><clipPath id="1b229a5f86"><path d="M 144.03125 343.988281 C 151.433594 341.042969 158.25 340.191406 165.03125 343.300781 C 174.628906 347.691406 179.050781 355.457031 179.152344 365.710938 L 179.28125 405.484375 C 179.378906 410.265625 177.121094 410.660156 173.351562 410.59375 C 169.8125 410.527344 167.160156 410.660156 167.257812 405.679688 L 167.324219 365.90625 C 167.226562 356.277344 158.96875 350.410156 150.941406 354.144531 C 146.585938 356.144531 144.195312 359.648438 144.097656 364.464844 L 144.097656 379.011719 C 144.292969 383.371094 141.507812 383.171875 138.65625 382.976562 C 135.90625 382.78125 132.136719 384.386719 132.171875 379.078125 L 132.171875 331.539062 C 132.171875 328.855469 133.1875 327.9375 135.90625 327.871094 C 143.996094 327.640625 143.996094 327.511719 143.996094 335.4375 L 143.996094 343.988281 "/></clipPath><clipPath id="1e170eefd7"><path d="M 0.160156 0.691406 L 47.519531 0.691406 L 47.519531 83.628906 L 0.160156 83.628906 Z M 0.160156 0.691406 "/></clipPath><clipPath id="03d85c8250"><path d="M 12.03125 16.988281 C 19.433594 14.042969 26.25 13.191406 33.03125 16.300781 C 42.628906 20.691406 47.050781 28.457031 47.152344 38.710938 L 47.28125 78.484375 C 47.378906 83.265625 45.121094 83.660156 41.351562 83.59375 C 37.8125 83.527344 35.160156 83.660156 35.257812 78.679688 L 35.324219 38.90625 C 35.226562 29.277344 26.96875 23.410156 18.941406 27.144531 C 14.585938 29.144531 12.195312 32.648438 12.097656 37.464844 L 12.097656 52.011719 C 12.292969 56.371094 9.507812 56.171875 6.65625 55.976562 C 3.90625 55.78125 0.136719 57.386719 0.171875 52.078125 L 0.171875 4.539062 C 0.171875 1.855469 1.1875 0.9375 3.90625 0.871094 C 11.996094 0.640625 11.996094 0.511719 11.996094 8.4375 L 11.996094 16.988281 "/></clipPath><clipPath id="c0a7cf3442"><rect x="0" width="48" y="0" height="84"/></clipPath><clipPath id="720dd6e0c5"><path d="M 355.171875 341.054688 L 411.84375 341.054688 L 411.84375 397.269531 L 355.171875 397.269531 Z M 355.171875 341.054688 "/></clipPath><clipPath id="3e890c7058"><path d="M 383.15625 385.335938 C 391.9375 385.433594 399.375 378.355469 399.605469 369.609375 C 399.867188 360.765625 392.398438 353.097656 383.519531 353.03125 C 374.640625 352.96875 366.875 360.535156 366.972656 369.25 C 367.070312 377.898438 374.441406 385.238281 383.15625 385.300781 M 382.699219 397 C 367.203125 396.636719 354.949219 384.089844 355.179688 368.824219 C 355.441406 353.066406 368.347656 340.941406 384.433594 341.371094 C 399.472656 341.761719 411.824219 354.671875 411.464844 369.578125 C 411.070312 385.269531 398.359375 397.359375 382.699219 397 "/></clipPath><clipPath id="0558e52aa2"><path d="M 0.171875 0.0546875 L 56.839844 0.0546875 L 56.839844 56.269531 L 0.171875 56.269531 Z M 0.171875 0.0546875 "/></clipPath><clipPath id="668276aa3c"><path d="M 28.15625 44.335938 C 36.9375 44.433594 44.375 37.355469 44.605469 28.609375 C 44.867188 19.765625 37.398438 12.097656 28.519531 12.03125 C 19.640625 11.96875 11.875 19.535156 11.972656 28.25 C 12.070312 36.898438 19.441406 44.238281 28.15625 44.300781 M 27.699219 56 C 12.203125 55.636719 -0.0507812 43.089844 0.179688 27.824219 C 0.441406 12.066406 13.347656 -0.0585938 29.433594 0.371094 C 44.472656 0.761719 56.824219 13.671875 56.464844 28.578125 C 56.070312 44.269531 43.359375 56.359375 27.699219 56 "/></clipPath><clipPath id="8bb2b80933"><rect x="0" width="57" y="0" height="57"/></clipPath><clipPath id="982b250e0a"><path d="M 696 341.054688 L 745.898438 341.054688 L 745.898438 411 L 696 411 Z M 696 341.054688 "/></clipPath><clipPath id="eb772803f8"><path d="M 707.695312 409.675781 L 713.003906 395.359375 C 713.691406 392.9375 713.855469 389.921875 713.035156 387.628906 L 697.671875 347.265625 C 697.113281 345.792969 696.621094 344.285156 696.097656 342.8125 C 703.238281 339.371094 707.859375 341.074219 710.511719 347.890625 C 713.820312 356.472656 717.164062 365.054688 720.964844 374.882812 L 726.335938 360.929688 C 727.972656 356.703125 729.578125 352.476562 731.21875 348.25 C 734.101562 340.8125 736.886719 339.632812 745.796875 342.515625 L 744.714844 346.085938 C 737.050781 366.105469 730.003906 384.351562 722.996094 402.601562 C 719.621094 411.382812 718.472656 411.9375 707.726562 409.613281 "/></clipPath><clipPath id="8af59c1c2d"><path d="M 0 0.0546875 L 49.898438 0.0546875 L 49.898438 70 L 0 70 Z M 0 0.0546875 "/></clipPath><clipPath id="6d7e39423c"><path d="M 11.695312 68.675781 L 17.003906 54.359375 C 17.691406 51.9375 17.855469 48.921875 17.035156 46.628906 L 1.671875 6.265625 C 1.113281 4.792969 0.621094 3.285156 0.0976562 1.8125 C 7.238281 -1.628906 11.859375 0.0742188 14.511719 6.890625 C 17.820312 15.472656 21.164062 24.054688 24.964844 33.882812 L 30.335938 19.929688 C 31.972656 15.703125 33.578125 11.476562 35.21875 7.25 C 38.101562 -0.1875 40.886719 -1.367188 49.796875 1.515625 L 48.714844 5.085938 C 41.050781 25.105469 34.003906 43.351562 26.996094 61.601562 C 23.621094 70.382812 22.472656 70.9375 11.726562 68.613281 "/></clipPath><clipPath id="56ef00b2c7"><rect x="0" width="50" y="0" height="70"/></clipPath><clipPath id="52e75a306b"><path d="M 644.527344 340.59375 L 691.988281 340.59375 L 691.988281 397 L 644.527344 397 Z M 644.527344 340.59375 "/></clipPath><clipPath id="2bf53c8869"><path d="M 644.660156 362.402344 L 644.660156 348.347656 C 644.660156 341.796875 649.839844 339.011719 655.800781 342.1875 L 658.683594 343.136719 C 676.539062 337.796875 690.921875 347.890625 691.542969 365.417969 L 691.675781 392.574219 C 691.804688 397.6875 688.367188 396.671875 685.417969 396.769531 C 682.46875 396.867188 679.585938 397.292969 679.714844 392.609375 L 679.714844 365.941406 C 679.488281 356.570312 672.148438 351.066406 664.15625 353.917969 C 659.46875 355.585938 656.621094 359.421875 656.488281 364.597656 L 656.554688 377.210938 C 657.011719 382.058594 654.980469 383.074219 650.460938 383.171875 C 645.578125 383.269531 644.269531 381.535156 644.597656 376.980469 L 644.660156 362.433594 "/></clipPath><clipPath id="a9bb5a665f"><path d="M 0.527344 0.59375 L 47.921875 0.59375 L 47.921875 57 L 0.527344 57 Z M 0.527344 0.59375 "/></clipPath><clipPath id="636260c40e"><path d="M 0.660156 22.402344 L 0.660156 8.347656 C 0.660156 1.796875 5.839844 -0.988281 11.800781 2.1875 L 14.683594 3.136719 C 32.539062 -2.203125 46.921875 7.890625 47.542969 25.417969 L 47.675781 52.574219 C 47.804688 57.6875 44.367188 56.671875 41.417969 56.769531 C 38.46875 56.867188 35.585938 57.292969 35.714844 52.609375 L 35.714844 25.941406 C 35.488281 16.570312 28.148438 11.066406 20.15625 13.917969 C 15.46875 15.585938 12.621094 19.421875 12.488281 24.597656 L 12.554688 37.210938 C 13.011719 42.058594 10.980469 43.074219 6.460938 43.171875 C 1.578125 43.269531 0.269531 41.535156 0.597656 36.980469 L 0.660156 22.433594 "/></clipPath><clipPath id="66fcca51b8"><rect x="0" width="48" y="0" height="57"/></clipPath></defs><g id="acf979aea3"><g clip-rule="nonzero" clip-path="url(#524e04770c)"><g clip-rule="nonzero" clip-path="url(#88361e28a3)"><g transform="matrix(1,0,0,1,464,455)"><g clip-path="url(#01e0d33b59)"><g clip-rule="nonzero" clip-path="url(#07971c28bf)"><g clip-rule="nonzero" clip-path="url(#f82439ceee)"><rect x="0" width="25" height="30" y="0" style="fill:#ffffff;fill-opacity:1;stroke:none;"/></g></g></g></g></g></g><g clip-rule="nonzero" clip-path="url(#7a737f5dd8)"><g clip-rule="nonzero" clip-path="url(#81f0697998)"><g transform="matrix(1,0,0,1,315,455)"><g clip-path="url(#58bc4c9ddf)"><g clip-rule="nonzero" clip-path="url(#387a482011)"><g clip-rule="nonzero" clip-path="url(#c5df11ccfe)"><rect x="0" width="24" height="30" y="0" style="fill:#ffffff;fill-opacity:1;stroke:none;"/></g></g></g></g></g></g><g clip-rule="nonzero" clip-path="url(#65fa7e33a1)"><g clip-rule="nonzero" clip-path="url(#9147182562)"><g transform="matrix(1,0,0,1,520,455)"><g clip-path="url(#ddd7b59e0b)"><g clip-rule="nonzero" clip-path="url(#4e64f61539)"><g clip-rule="nonzero" clip-path="url(#b32f94c749)"><rect x="0" width="21" height="30" y="0" style="fill:#ffffff;fill-opacity:1;stroke:none;"/></g></g></g></g></g></g><g clip-rule="nonzero" clip-path="url(#519a7655f5)"><g clip-rule="nonzero" clip-path="url(#8978f031bd)"><g transform="matrix(1,0,0,1,288,455)"><g clip-path="url(#1a97cced69)"><g clip-rule="nonzero" clip-path="url(#f35fc3d561)"><g clip-rule="nonzero" clip-path="url(#215f6cd59e)"><rect x="0" width="21" height="30" y="0" style="fill:#ffffff;fill-opacity:1;stroke:none;"/></g></g></g></g></g></g><g clip-rule="nonzero" clip-path="url(#ee23767386)"><g clip-rule="nonzero" clip-path="url(#738bf8594b)"><g transform="matrix(1,0,0,1,395,455)"><g clip-path="url(#a9a399b11f)"><g clip-rule="nonzero" clip-path="url(#0d37e62c1c)"><g clip-rule="nonzero" clip-path="url(#97e3d29049)"><rect x="0" width="21" height="29" y="0" style="fill:#ffffff;fill-opacity:1;stroke:none;"/></g></g></g></g></g></g><g clip-rule="nonzero" clip-path="url(#f8d729b037)"><g clip-rule="nonzero" clip-path="url(#efdd5fe7f4)"><g transform="matrix(1,0,0,1,422,455)"><g clip-path="url(#bbab6e4b03)"><g clip-rule="nonzero" clip-path="url(#08f6246b02)"><g clip-rule="nonzero" clip-path="url(#1ca2d1fbd9)"><rect x="0" width="21" height="30" y="0" style="fill:#ffffff;fill-opacity:1;stroke:none;"/></g></g></g></g></g></g><g clip-rule="nonzero" clip-path="url(#390aaf2b9d)"><g clip-rule="nonzero" clip-path="url(#a5ebe120ed)"><g transform="matrix(1,0,0,1,497,456)"><g clip-path="url(#52d9e49bab)"><g clip-rule="nonzero" clip-path="url(#8b75851eae)"><g clip-rule="nonzero" clip-path="url(#adbb8f548d)"><rect x="0" width="17" height="28" y="0" style="fill:#ffffff;fill-opacity:1;stroke:none;"/></g></g></g></g></g></g><g clip-rule="nonzero" clip-path="url(#1166c1f495)"><g clip-rule="nonzero" clip-path="url(#121ef47cf9)"><g transform="matrix(1,0,0,1,360,456)"><g clip-path="url(#c9ee217ab9)"><g clip-rule="nonzero" clip-path="url(#920bc8a1f7)"><g clip-rule="nonzero" clip-path="url(#8828a5b03f)"><rect x="0" width="16" height="28" y="0" style="fill:#ffffff;fill-opacity:1;stroke:none;"/></g></g></g></g></g></g><g clip-rule="nonzero" clip-path="url(#db752463a2)"><g clip-rule="nonzero" clip-path="url(#54c6fcce9e)"><g transform="matrix(1,0,0,1,346,455)"><g clip-path="url(#b55b53ef25)"><g clip-rule="nonzero" clip-path="url(#a00ec20638)"><g clip-rule="nonzero" clip-path="url(#00449e449c)"><rect x="0" width="6" height="29" y="0" style="fill:#ffffff;fill-opacity:1;stroke:none;"/></g></g></g></g></g></g><g clip-rule="nonzero" clip-path="url(#d6383045e9)"><g clip-rule="nonzero" clip-path="url(#b1f02248d5)"><g transform="matrix(1,0,0,1,381,456)"><g clip-path="url(#00994f8c13)"><g clip-rule="nonzero" clip-path="url(#43291abb43)"><g clip-rule="nonzero" clip-path="url(#3ff4050409)"><rect x="0" width="6" height="29" y="0" style="fill:#ffffff;fill-opacity:1;stroke:none;"/></g></g></g></g></g></g><g clip-rule="nonzero" clip-path="url(#faa0075743)"><g transform="matrix(1,0,0,1,451,456)"><g clip-path="url(#48becadfec)"><g clip-rule="nonzero" clip-path="url(#37af4596ed)"><rect x="0" width="6" height="28" y="0" style="fill:#ffffff;fill-opacity:1;stroke:none;"/></g></g></g></g><g clip-rule="nonzero" clip-path="url(#29718c95a8)"><g clip-rule="nonzero" clip-path="url(#e3a4bb98b3)"><g transform="matrix(1,0,0,1,64,327)"><g clip-path="url(#f32261ccb6)"><g clip-rule="nonzero" clip-path="url(#d11131e05e)"><g clip-rule="nonzero" clip-path="url(#64fc333ddc)"><rect x="0" width="58" height="70" y="0" style="fill:#ffffff;fill-opacity:1;stroke:none;"/></g></g></g></g></g></g><g clip-rule="nonzero" clip-path="url(#4a6449445a)"><g clip-rule="nonzero" clip-path="url(#d510488450)"><g transform="matrix(1,0,0,1,420,341)"><g clip-path="url(#ec382238a7)"><g clip-rule="nonzero" clip-path="url(#1958999abd)"><g clip-rule="nonzero" clip-path="url(#de38d34161)"><rect x="0" width="82" height="56" y="0" style="fill:#ffffff;fill-opacity:1;stroke:none;"/></g></g></g></g></g></g><g clip-rule="nonzero" clip-path="url(#26a20a257a)"><g clip-rule="nonzero" clip-path="url(#001c320707)"><g transform="matrix(1,0,0,1,513,341)"><g clip-path="url(#cb3a98d22b)"><g clip-rule="nonzero" clip-path="url(#c8508bfb4c)"><g clip-rule="nonzero" clip-path="url(#bd6355cd68)"><rect x="0" width="57" height="70" y="0" style="fill:#ffffff;fill-opacity:1;stroke:none;"/></g></g></g></g></g></g><g clip-rule="nonzero" clip-path="url(#2d0bcb64ea)"><g clip-rule="nonzero" clip-path="url(#fcad66f4de)"><g transform="matrix(1,0,0,1,274,325)"><g clip-path="url(#f405b156c7)"><g clip-rule="nonzero" clip-path="url(#197e42a4b5)"><g clip-rule="nonzero" clip-path="url(#a6bb6426bc)"><rect x="0" width="73" height="72" y="0" style="fill:#ffffff;fill-opacity:1;stroke:none;"/></g></g></g></g></g></g><g clip-rule="nonzero" clip-path="url(#d345bf9309)"><g clip-rule="nonzero" clip-path="url(#5b4129eb8b)"><g transform="matrix(1,0,0,1,576,341)"><g clip-path="url(#df4c4d1478)"><g clip-rule="nonzero" clip-path="url(#2d443917da)"><g clip-rule="nonzero" clip-path="url(#e4c3747657)"><rect x="0" width="57" height="57" y="0" style="fill:#ffffff;fill-opacity:1;stroke:none;"/></g></g></g></g></g></g><g clip-rule="nonzero" clip-path="url(#0757c1f353)"><g clip-rule="nonzero" clip-path="url(#8a9e4e34a2)"><g transform="matrix(1,0,0,1,190,341)"><g clip-path="url(#eb8aed7fd4)"><g clip-rule="nonzero" clip-path="url(#07bf739ab0)"><g clip-rule="nonzero" clip-path="url(#765dbc8a4c)"><rect x="0" width="56" height="57" y="0" style="fill:#ffffff;fill-opacity:1;stroke:none;"/></g></g></g></g></g></g><g clip-rule="nonzero" clip-path="url(#6a8ab65f80)"><g clip-rule="nonzero" clip-path="url(#1b229a5f86)"><g transform="matrix(1,0,0,1,132,327)"><g clip-path="url(#c0a7cf3442)"><g clip-rule="nonzero" clip-path="url(#1e170eefd7)"><g clip-rule="nonzero" clip-path="url(#03d85c8250)"><rect x="0" width="48" height="84" y="0" style="fill:#ffffff;fill-opacity:1;stroke:none;"/></g></g></g></g></g></g><g clip-rule="nonzero" clip-path="url(#720dd6e0c5)"><g clip-rule="nonzero" clip-path="url(#3e890c7058)"><g transform="matrix(1,0,0,1,355,341)"><g clip-path="url(#8bb2b80933)"><g clip-rule="nonzero" clip-path="url(#0558e52aa2)"><g clip-rule="nonzero" clip-path="url(#668276aa3c)"><rect x="0" width="57" height="57" y="0" style="fill:#ffffff;fill-opacity:1;stroke:none;"/></g></g></g></g></g></g><g clip-rule="nonzero" clip-path="url(#982b250e0a)"><g clip-rule="nonzero" clip-path="url(#eb772803f8)"><g transform="matrix(1,0,0,1,696,341)"><g clip-path="url(#56ef00b2c7)"><g clip-rule="nonzero" clip-path="url(#8af59c1c2d)"><g clip-rule="nonzero" clip-path="url(#6d7e39423c)"><rect x="0" width="50" height="70" y="0" style="fill:#ffffff;fill-opacity:1;stroke:none;"/></g></g></g></g></g></g><g clip-rule="nonzero" clip-path="url(#52e75a306b)"><g clip-rule="nonzero" clip-path="url(#2bf53c8869)"><g transform="matrix(1,0,0,1,644,340)"><g clip-path="url(#66fcca51b8)"><g clip-rule="nonzero" clip-path="url(#a9bb5a665f)"><g clip-rule="nonzero" clip-path="url(#636260c40e)"><rect x="0" width="48" height="57" y="0" style="fill:#ffffff;fill-opacity:1;stroke:none;"/></g></g></g></g></g></g></g></svg>