<svg width="369" height="176" viewBox="0 0 369 176" fill="none" xmlns="http://www.w3.org/2000/svg">
<path d="M88.1781 101.237C80.9371 101.237 75.0681 95.3685 75.0681 88.1315C75.0681 80.8935 80.9371 75.0245 88.1781 75.0245C95.4151 75.0245 101.283 80.8935 101.283 88.1315C101.283 95.3685 95.4151 101.237 88.1781 101.237ZM164.626 113.046L119.605 94.2345C114.27 92.0005 114.29 84.4315 119.644 82.2375L164.783 63.7085C168.101 62.3415 169.685 58.5515 168.324 55.2325C166.958 51.9145 163.167 50.3315 159.848 51.6915L114.71 70.2205C109.362 72.4145 104.027 67.0465 106.254 61.7115L125.072 16.6915C126.458 13.3865 124.895 9.58252 121.582 8.19652C120.769 7.85452 119.921 7.69052 119.086 7.69052C116.543 7.69052 114.133 9.19451 113.094 11.6845L94.2771 56.7045C92.0431 62.0395 84.4751 62.0135 82.2791 56.6655L63.7511 11.5275C62.3921 8.20951 58.5931 6.62552 55.2821 7.98552H55.2761C51.9641 9.34552 50.3741 13.1435 51.7331 16.4555L70.2621 61.5925C72.4631 66.9485 67.0891 72.2835 61.7551 70.0495L16.7331 51.2385C13.4301 49.8515 9.62406 51.4155 8.24506 54.7205C7.90306 55.5415 7.73805 56.3895 7.73805 57.2235C7.73805 59.7665 9.24306 62.1775 11.7271 63.2165L56.7461 82.0335C62.0821 84.2615 62.0631 91.8365 56.7071 94.0315L11.5701 112.56C8.25205 113.92 6.66805 117.711 8.02805 121.029C9.06005 123.539 11.4841 125.057 14.0411 125.057C14.8611 125.057 15.6961 124.899 16.5031 124.57L61.6421 106.042C66.9891 103.847 72.3251 109.215 70.0971 114.557L51.2801 159.57C49.8931 162.882 51.4581 166.686 54.7691 168.066C55.5841 168.407 56.4391 168.572 57.2721 168.572C59.8081 168.572 62.2201 167.067 63.2591 164.577L82.0761 119.564C84.3091 114.228 91.8781 114.248 94.0721 119.603L112.602 164.735C113.961 168.053 117.759 169.643 121.077 168.276C123.58 167.245 125.105 164.827 125.105 162.271C125.105 161.449 124.947 160.615 124.612 159.807L106.091 114.668C103.889 109.321 109.264 103.986 114.598 106.213L159.618 125.03C162.923 126.41 166.727 124.853 168.108 121.541C168.45 120.72 168.613 119.872 168.613 119.038C168.613 116.502 167.108 114.09 164.626 113.046Z" fill="#174940"/>
<path d="M88.1763 0.275452C84.8853 0.275452 82.2163 2.94245 82.2163 6.23545L84.2033 35.2785C84.2033 38.5694 84.8853 41.2365 88.1763 41.2365C91.4673 41.2365 92.1493 38.5694 92.1493 35.2785L94.1363 6.23545C94.1363 2.94245 91.4673 0.275452 88.1763 0.275452Z" fill="#174940"/>
<path d="M88.1763 175.989C84.8853 175.989 82.2163 173.322 82.2163 170.03L84.2033 140.986C84.2033 137.695 84.8853 135.028 88.1763 135.028C91.4673 135.028 92.1493 137.695 92.1493 140.986L94.1363 170.03C94.1363 173.322 91.4673 175.989 88.1763 175.989Z" fill="#174940"/>
<path d="M176.033 88.132C176.033 84.841 173.366 82.172 170.073 82.172L141.03 84.159C137.739 84.159 135.072 84.841 135.072 88.132C135.072 91.423 137.739 92.105 141.03 92.105L170.073 94.092C173.366 94.092 176.033 91.423 176.033 88.132Z" fill="#174940"/>
<path d="M0.31958 88.132C0.31958 84.841 2.98658 82.172 6.27958 82.172L35.3226 84.159C38.6136 84.159 41.2806 84.841 41.2806 88.132C41.2806 91.423 38.6136 92.105 35.3226 92.105L6.27958 94.092C2.98658 94.092 0.31958 91.423 0.31958 88.132Z" fill="#174940"/>
<path d="M150.3 26.0081C147.973 23.6811 144.2 23.6801 141.872 26.0081L122.74 47.9491C120.413 50.2771 119.009 52.6451 121.336 54.9721C123.663 57.2991 126.031 55.8951 128.359 53.5681L150.3 34.4361C152.628 32.1081 152.627 28.3351 150.3 26.0081Z" fill="#174940"/>
<path d="M26.0523 150.256C23.7253 147.929 23.7243 144.156 26.0523 141.828L47.9933 122.696C50.3213 120.369 52.6893 118.965 55.0163 121.292C57.3433 123.619 55.9393 125.987 53.6123 128.315L34.4803 150.256C32.1523 152.584 28.3793 152.583 26.0523 150.256Z" fill="#174940"/>
<path d="M150.3 150.256C152.627 147.929 152.628 144.156 150.3 141.828L128.359 122.696C126.031 120.369 123.663 118.965 121.336 121.292C119.009 123.619 120.413 125.987 122.74 128.315L141.872 150.256C144.2 152.584 147.973 152.583 150.3 150.256Z" fill="#174940"/>
<path d="M26.0523 26.0081C28.3793 23.6811 32.1523 23.6801 34.4803 26.0081L53.6123 47.9491C55.9393 50.2771 57.3433 52.6451 55.0163 54.9721C52.6893 57.2991 50.3213 55.8951 47.9933 53.5681L26.0523 34.4361C23.7243 32.1081 23.7253 28.3351 26.0523 26.0081Z" fill="#174940"/>
<path d="M219.536 113.857L199.905 66.8992C199.474 65.8622 199.128 64.8252 199.128 63.7012C199.128 59.9802 202.067 57.1262 205.787 57.1262C209.245 57.1262 211.495 59.1172 212.533 61.7972L227.668 100.97L242.972 61.3662C243.838 59.2032 246.172 57.1262 249.371 57.1262C253.003 57.1262 255.945 59.8942 255.945 63.5282C255.945 64.5652 255.599 65.6892 255.252 66.4662L235.451 113.857C234.065 117.144 231.557 119.133 227.925 119.133H227.061C223.429 119.133 220.92 117.144 219.536 113.857Z" fill="#174940"/>
<path d="M262.988 64.3042C262.988 60.5862 265.926 57.6452 269.647 57.6452H291.093C298.009 57.6452 303.459 59.5482 306.917 63.0072C309.686 65.7772 311.069 69.1492 311.069 73.2972V73.4732C311.069 80.3042 307.438 84.1082 303.113 86.5292C310.117 89.2122 314.442 93.2772 314.442 101.405V101.577C314.442 112.646 305.448 118.181 291.786 118.181H269.647C265.926 118.181 262.988 115.24 262.988 111.522V64.3042ZM288.237 82.1182C294.12 82.1182 297.837 80.2172 297.837 75.7212V75.5452C297.837 71.5702 294.724 69.3212 289.102 69.3212H275.957V82.1182H288.237ZM291.786 106.506C297.665 106.506 301.21 104.432 301.21 99.9362V99.7602C301.21 95.6982 298.182 93.1882 291.352 93.1882H275.957V106.506H291.786Z" fill="#174940"/>
<path d="M320.249 64.3042C320.249 60.5862 323.187 57.6452 326.908 57.6452H344.981C359.423 57.6452 368.157 66.2082 368.157 78.5732V78.7462C368.157 92.7562 357.261 100.021 343.685 100.021H333.567V112.041C333.567 115.76 330.626 118.698 326.908 118.698C323.187 118.698 320.249 115.76 320.249 112.041V64.3042ZM344.116 88.1732C350.774 88.1732 354.668 84.1952 354.668 79.0082V78.8332C354.668 72.8662 350.516 69.6662 343.858 69.6662H333.567V88.1732H344.116Z" fill="#174940"/>
</svg>
